<svg xmlns="http://www.w3.org/2000/svg" xmlns:xlink="http://www.w3.org/1999/xlink" data-name="Layer 1" viewBox="0 0 128 128"><defs><clipPath id="b"><rect width="128" height="128" y="-163" fill="none" rx="24" ry="24"/></clipPath><clipPath id="c"><path fill="none" d="M104,0H24A24.07,24.07,0,0,0,0,24v80a24.07,24.07,0,0,0,24,24h80a24.07,24.07,0,0,0,24-24V24A24.07,24.07,0,0,0,104,0Zm16,104a16,16,0,0,1-16,16H24A16,16,0,0,1,8,104V24A16,16,0,0,1,24,8h80a16,16,0,0,1,16,16Z"/></clipPath><clipPath id="e"><path fill="none" d="M64,48A16,16,0,1,0,80,64,16,16,0,0,0,64,48Zm0,24a8,8,0,1,1,8-8A8,8,0,0,1,64,72Z"/></clipPath><clipPath id="f"><path fill="none" d="M84,100H44A16,16,0,0,1,28,84V44A16,16,0,0,1,44,28H84a16,16,0,0,1,16,16V84A16,16,0,0,1,84,100ZM44,36a8,8,0,0,0-8,8V84a8,8,0,0,0,8,8H84a8,8,0,0,0,8-8V44a8,8,0,0,0-8-8Z"/></clipPath><clipPath id="g"><circle cx="82" cy="46" r="5" fill="none"/></clipPath><radialGradient id="a" cx="27.5" cy="-41.5" r="148.5" gradientUnits="userSpaceOnUse"><stop offset="0" stop-color="#ffd676"/><stop offset=".25" stop-color="#f2a454"/><stop offset=".38" stop-color="#f05c3c"/><stop offset=".7" stop-color="#c22f86"/><stop offset=".96" stop-color="#6666ad"/><stop offset=".99" stop-color="#5c6cb2"/></radialGradient><radialGradient id="d" cx="27.5" cy="121.5" r="148.5" xlink:href="#a"/><radialGradient id="h" cx="13.87" cy="140.38" r="185.63" xlink:href="#a"/></defs><g clip-path="url(#b)"><circle cx="27.5" cy="-41.5" r="148.5" fill="url(#a)"/></g><g clip-path="url(#c)"><circle cx="27.5" cy="121.5" r="148.5" fill="url(#d)"/></g><g clip-path="url(#e)"><circle cx="27.5" cy="121.5" r="148.5" fill="url(#d)"/></g><g clip-path="url(#f)"><circle cx="27.5" cy="121.5" r="148.5" fill="url(#d)"/></g><g clip-path="url(#g)"><circle cx="13.87" cy="140.38" r="185.63" fill="url(#h)"/></g></svg>